<mxfile host="app.diagrams.net" agent="Mozilla/5.0 (Windows NT 10.0; Win64; x64) AppleWebKit/537.36 (KHTML, like Gecko) Chrome/129.0.0.0 Safari/537.36" version="24.7.12">
  <diagram id="C5RBs43oDa-KdzZeNtuy" name="Page-1">
    <mxGraphModel dx="1687" dy="868" grid="1" gridSize="10" guides="1" tooltips="1" connect="1" arrows="1" fold="1" page="1" pageScale="1" pageWidth="827" pageHeight="1169" math="0" shadow="0">
      <root>
        <mxCell id="WIyWlLk6GJQsqaUBKTNV-0" />
        <mxCell id="WIyWlLk6GJQsqaUBKTNV-1" parent="WIyWlLk6GJQsqaUBKTNV-0" />
        <mxCell id="OS0eghQd7IkyQg5gayTk-24" value="" style="edgeStyle=orthogonalEdgeStyle;rounded=0;orthogonalLoop=1;jettySize=auto;html=1;" edge="1" parent="WIyWlLk6GJQsqaUBKTNV-1" source="WIyWlLk6GJQsqaUBKTNV-7" target="OS0eghQd7IkyQg5gayTk-23">
          <mxGeometry relative="1" as="geometry" />
        </mxCell>
        <mxCell id="WIyWlLk6GJQsqaUBKTNV-7" value="Sign Up" style="rounded=1;whiteSpace=wrap;html=1;fontSize=12;glass=0;strokeWidth=1;shadow=0;" parent="WIyWlLk6GJQsqaUBKTNV-1" vertex="1">
          <mxGeometry x="394" y="165" width="120" height="40" as="geometry" />
        </mxCell>
        <mxCell id="OS0eghQd7IkyQg5gayTk-2" value="" style="edgeStyle=orthogonalEdgeStyle;rounded=0;orthogonalLoop=1;jettySize=auto;html=1;" edge="1" parent="WIyWlLk6GJQsqaUBKTNV-1" source="OS0eghQd7IkyQg5gayTk-1">
          <mxGeometry relative="1" as="geometry">
            <mxPoint x="230" y="140" as="targetPoint" />
          </mxGeometry>
        </mxCell>
        <mxCell id="OS0eghQd7IkyQg5gayTk-1" value="Start" style="ellipse;whiteSpace=wrap;html=1;" vertex="1" parent="WIyWlLk6GJQsqaUBKTNV-1">
          <mxGeometry x="170" y="50" width="120" height="40" as="geometry" />
        </mxCell>
        <mxCell id="OS0eghQd7IkyQg5gayTk-4" value="" style="edgeStyle=orthogonalEdgeStyle;rounded=0;orthogonalLoop=1;jettySize=auto;html=1;" edge="1" parent="WIyWlLk6GJQsqaUBKTNV-1" source="OS0eghQd7IkyQg5gayTk-3" target="WIyWlLk6GJQsqaUBKTNV-7">
          <mxGeometry relative="1" as="geometry" />
        </mxCell>
        <mxCell id="OS0eghQd7IkyQg5gayTk-12" value="Belum" style="edgeLabel;html=1;align=center;verticalAlign=middle;resizable=0;points=[];" vertex="1" connectable="0" parent="OS0eghQd7IkyQg5gayTk-4">
          <mxGeometry x="-0.2754" y="2" relative="1" as="geometry">
            <mxPoint as="offset" />
          </mxGeometry>
        </mxCell>
        <mxCell id="OS0eghQd7IkyQg5gayTk-6" value="" style="edgeStyle=orthogonalEdgeStyle;rounded=0;orthogonalLoop=1;jettySize=auto;html=1;" edge="1" parent="WIyWlLk6GJQsqaUBKTNV-1" source="OS0eghQd7IkyQg5gayTk-3" target="OS0eghQd7IkyQg5gayTk-5">
          <mxGeometry relative="1" as="geometry" />
        </mxCell>
        <mxCell id="OS0eghQd7IkyQg5gayTk-14" value="Sudah" style="edgeLabel;html=1;align=center;verticalAlign=middle;resizable=0;points=[];" vertex="1" connectable="0" parent="OS0eghQd7IkyQg5gayTk-6">
          <mxGeometry x="0.32" relative="1" as="geometry">
            <mxPoint y="-20" as="offset" />
          </mxGeometry>
        </mxCell>
        <mxCell id="OS0eghQd7IkyQg5gayTk-3" value="Akun Sudah Terdaftar?" style="rhombus;whiteSpace=wrap;html=1;shadow=0;fontFamily=Helvetica;fontSize=12;align=center;strokeWidth=1;spacing=6;spacingTop=-4;" vertex="1" parent="WIyWlLk6GJQsqaUBKTNV-1">
          <mxGeometry x="175" y="140" width="110" height="90" as="geometry" />
        </mxCell>
        <mxCell id="OS0eghQd7IkyQg5gayTk-9" value="" style="edgeStyle=orthogonalEdgeStyle;rounded=0;orthogonalLoop=1;jettySize=auto;html=1;" edge="1" parent="WIyWlLk6GJQsqaUBKTNV-1" source="OS0eghQd7IkyQg5gayTk-5" target="OS0eghQd7IkyQg5gayTk-7">
          <mxGeometry relative="1" as="geometry" />
        </mxCell>
        <mxCell id="OS0eghQd7IkyQg5gayTk-15" value="Tidak" style="edgeLabel;html=1;align=center;verticalAlign=middle;resizable=0;points=[];" vertex="1" connectable="0" parent="OS0eghQd7IkyQg5gayTk-9">
          <mxGeometry x="-0.32" y="-1" relative="1" as="geometry">
            <mxPoint as="offset" />
          </mxGeometry>
        </mxCell>
        <mxCell id="OS0eghQd7IkyQg5gayTk-5" value="login dengan email?" style="rhombus;whiteSpace=wrap;html=1;" vertex="1" parent="WIyWlLk6GJQsqaUBKTNV-1">
          <mxGeometry x="180" y="290" width="100" height="100" as="geometry" />
        </mxCell>
        <mxCell id="OS0eghQd7IkyQg5gayTk-10" value="" style="edgeStyle=orthogonalEdgeStyle;rounded=0;orthogonalLoop=1;jettySize=auto;html=1;" edge="1" parent="WIyWlLk6GJQsqaUBKTNV-1" source="OS0eghQd7IkyQg5gayTk-7" target="OS0eghQd7IkyQg5gayTk-8">
          <mxGeometry relative="1" as="geometry" />
        </mxCell>
        <mxCell id="OS0eghQd7IkyQg5gayTk-16" value="Tidak" style="edgeLabel;html=1;align=center;verticalAlign=middle;resizable=0;points=[];" vertex="1" connectable="0" parent="OS0eghQd7IkyQg5gayTk-10">
          <mxGeometry x="-0.15" y="-1" relative="1" as="geometry">
            <mxPoint as="offset" />
          </mxGeometry>
        </mxCell>
        <mxCell id="OS0eghQd7IkyQg5gayTk-32" style="edgeStyle=orthogonalEdgeStyle;rounded=0;orthogonalLoop=1;jettySize=auto;html=1;entryX=0;entryY=0.5;entryDx=0;entryDy=0;" edge="1" parent="WIyWlLk6GJQsqaUBKTNV-1" source="OS0eghQd7IkyQg5gayTk-7" target="OS0eghQd7IkyQg5gayTk-23">
          <mxGeometry relative="1" as="geometry" />
        </mxCell>
        <mxCell id="OS0eghQd7IkyQg5gayTk-33" value="Ya" style="edgeLabel;html=1;align=center;verticalAlign=middle;resizable=0;points=[];" vertex="1" connectable="0" parent="OS0eghQd7IkyQg5gayTk-32">
          <mxGeometry x="-0.8267" y="-1" relative="1" as="geometry">
            <mxPoint as="offset" />
          </mxGeometry>
        </mxCell>
        <mxCell id="OS0eghQd7IkyQg5gayTk-7" value="login dengan Google?" style="rhombus;whiteSpace=wrap;html=1;" vertex="1" parent="WIyWlLk6GJQsqaUBKTNV-1">
          <mxGeometry x="180" y="490" width="100" height="100" as="geometry" />
        </mxCell>
        <mxCell id="OS0eghQd7IkyQg5gayTk-21" value="" style="edgeStyle=orthogonalEdgeStyle;rounded=0;orthogonalLoop=1;jettySize=auto;html=1;" edge="1" parent="WIyWlLk6GJQsqaUBKTNV-1" source="OS0eghQd7IkyQg5gayTk-8" target="OS0eghQd7IkyQg5gayTk-18">
          <mxGeometry relative="1" as="geometry" />
        </mxCell>
        <mxCell id="OS0eghQd7IkyQg5gayTk-22" value="Tidak" style="edgeLabel;html=1;align=center;verticalAlign=middle;resizable=0;points=[];" vertex="1" connectable="0" parent="OS0eghQd7IkyQg5gayTk-21">
          <mxGeometry x="-0.2" y="2" relative="1" as="geometry">
            <mxPoint as="offset" />
          </mxGeometry>
        </mxCell>
        <mxCell id="OS0eghQd7IkyQg5gayTk-34" style="edgeStyle=orthogonalEdgeStyle;rounded=0;orthogonalLoop=1;jettySize=auto;html=1;entryX=0;entryY=0.5;entryDx=0;entryDy=0;" edge="1" parent="WIyWlLk6GJQsqaUBKTNV-1" source="OS0eghQd7IkyQg5gayTk-8" target="OS0eghQd7IkyQg5gayTk-23">
          <mxGeometry relative="1" as="geometry" />
        </mxCell>
        <mxCell id="OS0eghQd7IkyQg5gayTk-35" value="Ya" style="edgeLabel;html=1;align=center;verticalAlign=middle;resizable=0;points=[];" vertex="1" connectable="0" parent="OS0eghQd7IkyQg5gayTk-34">
          <mxGeometry x="-0.8652" relative="1" as="geometry">
            <mxPoint as="offset" />
          </mxGeometry>
        </mxCell>
        <mxCell id="OS0eghQd7IkyQg5gayTk-8" value="login dengan Microsoft?" style="rhombus;whiteSpace=wrap;html=1;" vertex="1" parent="WIyWlLk6GJQsqaUBKTNV-1">
          <mxGeometry x="180" y="670" width="100" height="100" as="geometry" />
        </mxCell>
        <mxCell id="OS0eghQd7IkyQg5gayTk-18" value="End" style="ellipse;whiteSpace=wrap;html=1;" vertex="1" parent="WIyWlLk6GJQsqaUBKTNV-1">
          <mxGeometry x="170" y="880" width="120" height="40" as="geometry" />
        </mxCell>
        <mxCell id="OS0eghQd7IkyQg5gayTk-36" style="edgeStyle=orthogonalEdgeStyle;rounded=0;orthogonalLoop=1;jettySize=auto;html=1;entryX=1;entryY=0.5;entryDx=0;entryDy=0;" edge="1" parent="WIyWlLk6GJQsqaUBKTNV-1" source="OS0eghQd7IkyQg5gayTk-20" target="OS0eghQd7IkyQg5gayTk-18">
          <mxGeometry relative="1" as="geometry">
            <Array as="points">
              <mxPoint x="450" y="900" />
            </Array>
          </mxGeometry>
        </mxCell>
        <mxCell id="OS0eghQd7IkyQg5gayTk-20" value="Menerim Access Token" style="rounded=1;whiteSpace=wrap;html=1;fontSize=12;glass=0;strokeWidth=1;shadow=0;" vertex="1" parent="WIyWlLk6GJQsqaUBKTNV-1">
          <mxGeometry x="394" y="640" width="120" height="40" as="geometry" />
        </mxCell>
        <mxCell id="OS0eghQd7IkyQg5gayTk-27" style="edgeStyle=orthogonalEdgeStyle;rounded=0;orthogonalLoop=1;jettySize=auto;html=1;entryX=0.5;entryY=0;entryDx=0;entryDy=0;" edge="1" parent="WIyWlLk6GJQsqaUBKTNV-1" source="OS0eghQd7IkyQg5gayTk-23" target="OS0eghQd7IkyQg5gayTk-20">
          <mxGeometry relative="1" as="geometry" />
        </mxCell>
        <mxCell id="OS0eghQd7IkyQg5gayTk-28" value="Terdaftar" style="edgeLabel;html=1;align=center;verticalAlign=middle;resizable=0;points=[];" vertex="1" connectable="0" parent="OS0eghQd7IkyQg5gayTk-27">
          <mxGeometry x="-0.2143" y="-3" relative="1" as="geometry">
            <mxPoint as="offset" />
          </mxGeometry>
        </mxCell>
        <mxCell id="OS0eghQd7IkyQg5gayTk-29" style="edgeStyle=orthogonalEdgeStyle;rounded=0;orthogonalLoop=1;jettySize=auto;html=1;entryX=1;entryY=0.5;entryDx=0;entryDy=0;" edge="1" parent="WIyWlLk6GJQsqaUBKTNV-1" source="OS0eghQd7IkyQg5gayTk-23" target="WIyWlLk6GJQsqaUBKTNV-7">
          <mxGeometry relative="1" as="geometry">
            <Array as="points">
              <mxPoint x="550" y="340" />
              <mxPoint x="550" y="185" />
            </Array>
          </mxGeometry>
        </mxCell>
        <mxCell id="OS0eghQd7IkyQg5gayTk-30" value="Tidak Terdaftar" style="edgeLabel;html=1;align=center;verticalAlign=middle;resizable=0;points=[];" vertex="1" connectable="0" parent="OS0eghQd7IkyQg5gayTk-29">
          <mxGeometry x="-0.1981" y="-2" relative="1" as="geometry">
            <mxPoint as="offset" />
          </mxGeometry>
        </mxCell>
        <mxCell id="OS0eghQd7IkyQg5gayTk-23" value="Pengecekan Akun" style="rhombus;whiteSpace=wrap;html=1;" vertex="1" parent="WIyWlLk6GJQsqaUBKTNV-1">
          <mxGeometry x="406" y="289" width="96" height="100" as="geometry" />
        </mxCell>
        <mxCell id="OS0eghQd7IkyQg5gayTk-25" style="edgeStyle=orthogonalEdgeStyle;rounded=0;orthogonalLoop=1;jettySize=auto;html=1;exitX=1;exitY=0.5;exitDx=0;exitDy=0;entryX=0;entryY=0.5;entryDx=0;entryDy=0;" edge="1" parent="WIyWlLk6GJQsqaUBKTNV-1" source="OS0eghQd7IkyQg5gayTk-5" target="OS0eghQd7IkyQg5gayTk-23">
          <mxGeometry relative="1" as="geometry">
            <mxPoint x="400" y="340" as="targetPoint" />
          </mxGeometry>
        </mxCell>
        <mxCell id="OS0eghQd7IkyQg5gayTk-26" value="Ya" style="edgeLabel;html=1;align=center;verticalAlign=middle;resizable=0;points=[];" vertex="1" connectable="0" parent="OS0eghQd7IkyQg5gayTk-25">
          <mxGeometry x="-0.2985" y="-1" relative="1" as="geometry">
            <mxPoint as="offset" />
          </mxGeometry>
        </mxCell>
      </root>
    </mxGraphModel>
  </diagram>
</mxfile>
